# xmcd
#
# Track frame offsets:
# 150
# 16432
# 34300
# 58975
# 72212
# 102112
# 118972
# 136100
# 155962
# 176002
# 189987
# 207157
# 232287
# 248562
#
# Disc length: 3555 seconds
#
#
# Revision: 0
# Processed by: cddbd v1.5.1PL0 Copyright (c) Steve Scherf et al.
# Submitted via: FreeRIP 2.92 
#
DISCID=ce0de10e
DTITLE=Alexis Korner - Get of my cloud
DYEAR=1995
DGENRE=Blues
TTITLE0=Gospel ship
TTITLE1=Captain america
TTITLE2=Get off my cloud
TTITLE3=Honky Tonk woman
TTITLE4=Spoonful
TTITLE5=Daytime song
TTITLE6=Lend me some time
TTITLE7=Hey pretty mama
TTITLE8=Stump Blues
TTITLE9=Wreck of the old´97
TTITLE10=Casey Jones
TTITLE11=Hi Heel Sneakers
TTITLE12=King B.B.
TTITLE13=Juvenile Delinquent
EXTD=
EXTT0=
EXTT1=
EXTT2=
EXTT3=
EXTT4=
EXTT5=
EXTT6=
EXTT7=
EXTT8=
EXTT9=
EXTT10=
EXTT11=
EXTT12=
EXTT13=
PLAYORDER=
